<?xml version="1.0" encoding="UTF-8"?>
<svg width="64" height="64" version="1.1" viewBox="0 0 16.933 16.933" xmlns="http://www.w3.org/2000/svg">
 <g transform="translate(-132.07 -53.466)">
  <path d="m147.64 53.906c0.0144 0.01211 0.0351 0.02074 0.0418 0.03652 0.01 0.02193 9.9e-4 0.04634 4e-3 0.06976 1e-3 0.03225 4e-3 0.0645 5e-3 0.09675 6e-3 0.16133 0.0127 0.32266 0.0202 0.48399 0.0239 0.62788 0.0519 1.2574 4e-3 1.8849-0.0127 0.1221-0.0159 0.30757-0.0535 0.47211-0.0508-0.0381-0.10031-0.07819-0.15527-0.11194-0.23601-0.16093-0.48574-0.3075-0.7156-0.475-0.39911-0.26846-0.79851-0.5432-1.2592-0.73507-0.34944-0.11675-0.64611-0.20442-1.0316-0.20459-0.88815-3.67e-4 -1.59 0.4018-2.34 0.77662-0.63781 0.37554-0.77534 0.42518-1.3605 0.9167-1.4606 1.2269-2.5264 2.7367-3.6193 4.1933-0.0714 0.10298-0.14412 0.20547-0.21627 0.30812-0.057-0.08385-0.1141-0.16756-0.16972-0.25204-0.60778-0.92394-1.2564-2.0279-1.7866-2.988-0.26809-0.48546-0.80644-1.5107-1.0694-2.0818-0.0691-0.14977-0.12308-0.30402-0.18455-0.45606l-0.88919-0.35176c0.0755 0.15897 0.14587 0.32 0.22698 0.47712 0.32197 0.62402 0.85813 1.5687 1.1837 2.1319 0.55633 0.9624 1.2113 2.0734 1.8274 3.0073 0.19534 0.29607 0.39915 0.58815 0.60427 0.87956-0.19548 0.27794-0.38951 0.55648-0.57577 0.83881-0.61611 0.93389-1.2711 2.0449-1.8274 3.0073-0.32558 0.56317-0.86175 1.5081-1.1837 2.1321-0.081 0.15711-0.15129 0.31793-0.22697 0.47691l0.88919-0.35156c0.0615-0.15205 0.11563-0.30648 0.18455-0.45624 0.26297-0.57109 0.80131-1.5963 1.0694-2.0818 0.53024-0.96011 1.1788-2.064 1.7866-2.9879 0.0464-0.07065 0.0946-0.14037 0.14188-0.21051 0.0623 0.08881 0.12531 0.17745 0.18706 0.26659 1.093 1.4566 2.1587 2.9664 3.6193 4.1933 0.58516 0.49151 0.72268 0.54114 1.3605 0.9167 0.75005 0.37482 1.4519 0.77716 2.34 0.7768 0.38547-1.98e-4 0.68212-0.08801 1.0316-0.20478 0.46069-0.19189 0.86011-0.46642 1.2592-0.7349 0.22988-0.1675 0.47961-0.31407 0.71561-0.47499 0.0552-0.03384 0.10431-0.07393 0.15543-0.11221 0.038 0.16456 0.0415 0.34999 0.0535 0.47213 0.0491 0.62749 0.0212 1.2572-4e-3 1.885-6e-3 0.16133-0.0127 0.32265-0.0202 0.48399-1e-3 0.03225-4e-3 0.0645-5e-3 0.09675-8.9e-4 0.02322 6e-3 0.04773-4e-3 0.06966-6e-3 0.01578-0.0277 0.02421-0.0417 0.03642l0.93778-0.28286c0.0281-0.08266 0.024-0.14891 0.0244-0.23519 8.9e-4 -0.1596 5e-3 -0.31925 5e-3 -0.47883 0.01-0.62994 0.0266-1.2604-6e-3 -1.89-0.0188-0.26645 4e-3 -0.58423-0.18432-0.81584-0.11234-0.06311-0.21093-0.14462-0.33556-0.19367-0.43753-0.21565-0.88469-0.41782-1.3422-0.60207-0.63956-0.24302-1.2851-0.47632-1.9522-0.6614h-4.4e-4l-0.86091 0.41358c0.68185 0.15933 1.3334 0.39286 1.9766 0.63786 0.44923 0.18167 0.88596 0.38501 1.3092 0.60627 0.11221 0.05765 0.21904 0.12104 0.32049 0.191 0.0294 0.03007 0.0518 0.06847 0.0714 0.10926l-0.68187-0.36379c-0.0914 0.05964-0.17057 0.1316-0.26164 0.19176-0.22948 0.16451-0.47491 0.31311-0.70146 0.48073-0.39 0.26385-0.77949 0.53594-1.2341 0.71901-0.0955 0.03076-0.18866 0.06718-0.28649 0.09228-0.37016 0.09526-0.76264 0.11877-1.1436 0.0508-0.17037-0.03036-0.32579-0.13782-0.49956-0.128-0.0303 9.92e-4 -0.0184 0.01449 5e-3 0.03086-0.48096-0.26777-0.67618-0.3699-1.2088-0.80282-1.505-1.2233-2.6088-2.7434-3.7249-4.2153-0.20659-0.29779-0.41761-0.59358-0.62528-0.89085 0.21685-0.31115 0.43769-0.62031 0.65379-0.93183 1.1162-1.4718 2.2199-2.9922 3.7249-4.2154 0.53215-0.43253 0.72749-0.53486 1.2074-0.80207-0.0226 0.01588-0.0334 0.02858-5e-3 0.03026 0.17376 0.0089 0.32921-0.09794 0.49955-0.12826 0.38094-0.06787 0.77341-0.04426 1.1436 0.0508 0.0978 0.02511 0.19096 0.06152 0.28652 0.09228 0.45462 0.18305 0.84411 0.45515 1.2341 0.719 0.22655 0.16762 0.47197 0.31623 0.70145 0.48074 0.0912 0.06023 0.17031 0.13214 0.26165 0.19175l0.68207-0.36381c-0.0196 0.04098-0.0421 0.07919-0.0714 0.10927-0.10136 0.07015-0.20823 0.13347-0.32049 0.19118-0.42321 0.22126-0.85993 0.42462-1.3092 0.60628-0.64317 0.245-1.295 0.47852-1.9768 0.63787l0.86112 0.41356h2.5e-4c0.66716-0.18506 1.3127-0.41838 1.9522-0.6614 0.45754-0.18423 0.90471-0.3864 1.3422-0.60207 0.12466-0.04902 0.22346-0.13068 0.33579-0.19386 0.18692-0.23161 0.16532-0.54939 0.18409-0.81584 0.0325-0.62964 0.0144-1.2601 6e-3 -1.89-9.9e-4 -0.15958-5e-3 -0.31923-5e-3 -0.47883-4.5e-4 -0.08623 5e-3 -0.15235-0.0244-0.23499zm-4.6362 2.0148c-0.0194 0.0133-0.0507 0.03007-0.0842 0.04713 0.0311-0.01736 0.0507-0.02818 0.0842-0.04713zm-0.11752 12.036c0.0353 0.01806 0.0689 0.03582 0.089 0.04971-0.0353-0.02004-0.0564-0.03146-0.089-0.04971z" stroke="#000" stroke-width=".78788"/>
 </g>
</svg>
